# xmcd
# 
# Track frame offsets:
#     150
#     21625
#     35480
#     52025
#     66810
#     81588
#     100142
#     112330
#     127846
#     149546
#     168557
# 
# Disc length: 2510
# 
# Revision: 1
# Processed by: cddbd v1.5.2PL0 Copyright (c) Steve Scherf et al.
# Submitted via: BonkEnc v1.0.0
# 
DISCID=a709cc0b
DTITLE=De Dijk - Hollands glorie
DYEAR=0
DGENRE=
TTITLE0=Binnen zonder kloppen
TTITLE1=Nergens zonder haar
TTITLE2=elke dag een nieuwe hoed
TTITLE3=Groot hart
TTITLE4=Je zou me eens moeten zien
TTITLE5=Nooit meer terug
TTITLE6=Elke keer
TTITLE7=Cowboy met de witte hoed
TTITLE8=Veel nacht en weinig maan
TTITLE9=Wat nog meer
TTITLE10=Dit bittere eind
EXTD=
EXTT0=
EXTT1=
EXTT2=
EXTT3=
EXTT4=
EXTT5=
EXTT6=
EXTT7=
EXTT8=
EXTT9=
EXTT10=
PLAYORDER=
